<svg xmlns="http://www.w3.org/2000/svg" xmlns:xlink="http://www.w3.org/1999/xlink"><defs>
        <filter id="a" x="-20" y="-20" width="1960" height="187" filterUnits="userSpaceOnUse" color-interpolation-filters="sRGB">
            <feFlood flood-opacity="0" result="BackgroundImageFix"/>
            <feGaussianBlur in="BackgroundImageFix" stdDeviation="10"/>
            <feComposite in2="SourceAlpha" operator="in" result="effect1_backgroundBlur_488_12960"/>
            <feBlend in="SourceGraphic" in2="effect1_backgroundBlur_488_12960" result="shape"/>
        </filter>
    </defs><symbol id="link"><g fill="none">
    <path d="M40 52.213a29.836 29.836 0 0 0 15.297 8.21 29.76 29.76 0 0 0 17.26-1.707 29.902 29.902 0 0 0 13.408-11.049A30.089 30.089 0 0 0 91 31a30.089 30.089 0 0 0-5.035-16.667 29.902 29.902 0 0 0-13.407-11.05 29.76 29.76 0 0 0-17.262-1.707A29.837 29.837 0 0 0 40 9.786" stroke="#1F1E1E" stroke-width="2" stroke-linecap="round"/>
    <path d="M5 31h60M58 24l7 7-7 7" stroke="#1F1E1E" stroke-width="2" stroke-linecap="round" stroke-linejoin="round"/>
</g></symbol><symbol id="link@2x"><g fill="none">
    <path d="M40 52.213a29.836 29.836 0 0 0 15.297 8.21 29.76 29.76 0 0 0 17.26-1.707 29.902 29.902 0 0 0 13.408-11.049A30.089 30.089 0 0 0 91 31a30.089 30.089 0 0 0-5.035-16.667 29.902 29.902 0 0 0-13.407-11.05 29.76 29.76 0 0 0-17.262-1.707A29.837 29.837 0 0 0 40 9.786" stroke="#1F1E1E" stroke-width="2" stroke-linecap="round"/>
    <path d="M5 31h60M58 24l7 7-7 7" stroke="#1F1E1E" stroke-width="2" stroke-linecap="round" stroke-linejoin="round"/>
</g></symbol><symbol id="log-in"><g fill="none">
    <g stroke="#A51505" stroke-width="2" stroke-linecap="round" stroke-linejoin="round">
        <path d="m10 17 5-5-5-5M15 12H3M15 3h4a2 2 0 0 1 2 2v14a2 2 0 0 1-2 2h-4"/>
    </g>
</g></symbol><symbol id="log-inBW"><g fill="none">
    <g filter="url(#a)">
        <path fill="#DEDEDE" fill-opacity=".5" d="M0 0h1920v147H0z"/>
    </g>
    <path d="m739.207 80-3.727-10.731h-.07c.1 1.593.15 3.087.15 4.482V80h-1.908V67.15h2.962l3.569 10.222h.052l3.674-10.222h2.971V80h-2.022v-6.355c0-.638.015-1.47.044-2.496.036-1.025.065-1.646.088-1.863h-.07L741.062 80h-1.855Zm15.082.176c-1.512 0-2.695-.44-3.551-1.319-.849-.884-1.274-2.1-1.274-3.647 0-1.588.395-2.836 1.186-3.744.791-.908 1.878-1.362 3.261-1.362 1.283 0 2.297.39 3.041 1.168.744.78 1.116 1.852 1.116 3.217v1.117h-6.477c.029.943.284 1.67.764 2.18.481.503 1.158.755 2.031.755.574 0 1.107-.053 1.599-.158a8.616 8.616 0 0 0 1.6-.545v1.679c-.504.24-1.014.41-1.529.51-.516.099-1.105.149-1.767.149Zm-.378-8.508c-.656 0-1.183.208-1.582.624-.392.416-.627 1.022-.703 1.82h4.412c-.012-.803-.205-1.41-.58-1.82-.375-.416-.891-.624-1.547-.624Zm11.435 8.508c-1.231 0-2.186-.443-2.866-1.327h-.123c.082.82.123 1.318.123 1.494v3.981h-2.065V70.28h1.67c.047.182.144.615.29 1.301h.105c.645-.984 1.612-1.477 2.901-1.477 1.213 0 2.156.44 2.83 1.319.68.879 1.019 2.112 1.019 3.7s-.345 2.827-1.037 3.718c-.685.89-1.634 1.336-2.847 1.336Zm-.501-8.385c-.821 0-1.421.24-1.802.72-.375.481-.563 1.249-.563 2.303v.308c0 1.184.188 2.042.563 2.575.375.528.987.791 1.837.791.715 0 1.266-.293 1.652-.879.387-.586.58-1.42.58-2.504 0-1.09-.193-1.914-.58-2.47-.381-.563-.943-.844-1.687-.844Zm15.407 3.331c0 1.588-.407 2.827-1.222 3.718-.814.89-1.948 1.336-3.401 1.336-.908 0-1.711-.205-2.408-.615-.698-.41-1.234-1-1.609-1.767-.375-.768-.562-1.658-.562-2.672 0-1.576.404-2.807 1.213-3.691.808-.885 1.948-1.328 3.419-1.328 1.406 0 2.519.455 3.339 1.363.821.902 1.231 2.12 1.231 3.656Zm-7.075 0c0 2.244.829 3.366 2.487 3.366 1.641 0 2.461-1.122 2.461-3.366 0-2.22-.826-3.331-2.479-3.331-.867 0-1.497.287-1.889.861-.387.575-.58 1.398-.58 2.47Zm17.956-4.843V80h-2.074v-8.086h-4.36V80h-2.065v-9.72h8.499Zm7.892 9.897c-1.23 0-2.185-.443-2.865-1.327h-.123c.082.82.123 1.318.123 1.494v3.981h-2.065V70.28h1.67c.047.182.143.615.29 1.301h.105c.645-.984 1.611-1.477 2.901-1.477 1.212 0 2.156.44 2.83 1.319.679.879 1.019 2.112 1.019 3.7s-.346 2.827-1.037 3.718c-.685.89-1.635 1.336-2.848 1.336Zm-.501-8.385c-.82 0-1.42.24-1.801.72-.375.481-.563 1.249-.563 2.303v.308c0 1.184.188 2.042.563 2.575.375.528.987.791 1.837.791.714 0 1.265-.293 1.652-.879.387-.586.58-1.42.58-2.504 0-1.09-.193-1.914-.58-2.47-.381-.563-.943-.844-1.688-.844Zm8.763-1.512v4.984c0 .58-.047 1.432-.141 2.557l4.878-7.54h2.523V80h-1.986v-4.895c0-.27.014-.707.043-1.31.036-.604.065-1.043.088-1.318L807.832 80h-2.522v-9.72h1.977ZM818.484 80h-2.311l2.707-3.981c-.656-.188-1.172-.522-1.547-1.002-.375-.487-.562-1.087-.562-1.802 0-.92.328-1.638.984-2.154.656-.521 1.553-.782 2.689-.782h4.43V80H822.8v-3.744h-1.96L818.484 80Zm.299-6.768c0 .499.188.874.563 1.125.381.246.89.37 1.529.37h1.925v-2.883h-2.25c-.563 0-.999.12-1.31.36-.304.24-.457.583-.457 1.028Zm16.348-2.953v1.618h-3.164V80h-2.074v-8.103h-3.164v-1.618h8.402Zm3.849 0v4.984c0 .58-.046 1.432-.14 2.557l4.878-7.54h2.522V80h-1.986v-4.895c0-.27.015-.707.044-1.31.035-.604.064-1.043.088-1.318L839.525 80h-2.522v-9.72h1.977ZM850.178 80h-2.312l2.707-3.981c-.656-.188-1.172-.522-1.547-1.002-.375-.487-.562-1.087-.562-1.802 0-.92.328-1.638.984-2.154.656-.521 1.553-.782 2.69-.782h4.429V80h-2.074v-3.744h-1.96L850.178 80Zm.299-6.768c0 .499.187.874.562 1.125.381.246.891.37 1.529.37h1.925v-2.883h-2.25c-.562 0-.999.12-1.309.36-.305.24-.457.583-.457 1.028Z" fill="#A51505"/>
    <path d="M919.208 76.133c0 2.578-1.652 3.867-4.957 3.867h-3.735V67.15h7.839v1.802h-5.739v3.42h1.53c3.375 0 5.062 1.253 5.062 3.76Zm-6.592 2.1h1.512c1.008 0 1.746-.164 2.215-.492.469-.334.703-.87.703-1.608 0-.71-.237-1.219-.712-1.53-.469-.316-1.289-.474-2.461-.474h-1.257v4.104ZM929.535 80h-2.083v-8.103h-2.681c-.164 2.085-.386 3.714-.667 4.886-.276 1.172-.639 2.028-1.09 2.567-.446.539-1.026.808-1.741.808-.451 0-.829-.064-1.133-.193v-1.617c.216.082.433.123.65.123.598 0 1.066-.671 1.406-2.013.346-1.348.616-3.407.809-6.179h6.53V80Zm11.584-4.878c0 1.588-.407 2.827-1.222 3.718-.814.89-1.948 1.336-3.401 1.336-.908 0-1.711-.205-2.408-.615-.697-.41-1.234-1-1.609-1.767-.375-.768-.562-1.658-.562-2.672 0-1.576.404-2.807 1.213-3.691.808-.885 1.948-1.328 3.419-1.328 1.406 0 2.519.455 3.34 1.363.82.902 1.23 2.12 1.23 3.656Zm-7.075 0c0 2.244.829 3.366 2.487 3.366 1.641 0 2.461-1.122 2.461-3.366 0-2.22-.826-3.331-2.478-3.331-.868 0-1.497.287-1.89.861-.387.575-.58 1.398-.58 2.47Zm15.741-4.843v1.618h-4.219V80h-2.065v-9.72h6.284ZM1013.67 73.558c0 2.091-.52 3.717-1.57 4.877-1.05 1.16-2.53 1.74-4.44 1.74-1.94 0-3.43-.573-4.48-1.722-1.03-1.154-1.55-2.792-1.55-4.913 0-2.121.52-3.75 1.56-4.887 1.05-1.136 2.55-1.705 4.49-1.705 1.91 0 3.38.577 4.43 1.732 1.04 1.154 1.56 2.78 1.56 4.878Zm-9.81 0c0 1.582.32 2.783.96 3.603.64.815 1.58 1.222 2.84 1.222 1.25 0 2.19-.404 2.82-1.213.64-.809.96-2.013.96-3.612 0-1.577-.32-2.772-.95-3.586-.63-.815-1.57-1.222-2.81-1.222-1.26 0-2.22.407-2.86 1.222-.64.814-.96 2.01-.96 3.586Zm19.09-3.279v3.903h4.58v-3.903h2.07V80h-2.07v-4.192h-4.58V80h-2.06v-9.72h2.06ZM1038.64 80l-.41-1.353h-.07c-.47.591-.94.996-1.42 1.212-.47.211-1.08.317-1.83.317-.95 0-1.7-.258-2.24-.774-.53-.515-.8-1.245-.8-2.188 0-1.002.37-1.758 1.12-2.268.74-.51 1.88-.788 3.4-.835l1.68-.052v-.519c0-.621-.15-1.084-.44-1.389-.29-.31-.74-.465-1.35-.465a4.7 4.7 0 0 0-1.43.22c-.46.146-.89.319-1.32.518l-.66-1.477a6.9 6.9 0 0 1 1.73-.624c.62-.146 1.22-.22 1.77-.22 1.24 0 2.17.27 2.8.81.63.538.95 1.385.95 2.54V80h-1.48Zm-3.08-1.406c.75 0 1.35-.208 1.81-.624.45-.422.68-1.011.68-1.767v-.844l-1.25.053c-.97.035-1.68.2-2.12.492-.44.287-.66.73-.66 1.327 0 .434.13.771.38 1.011.26.235.65.352 1.16.352Zm11.36 1.582c-1.47 0-2.59-.428-3.36-1.283-.76-.862-1.14-2.095-1.14-3.7 0-1.635.4-2.892 1.19-3.771.81-.879 1.96-1.319 3.48-1.319 1.02 0 1.94.19 2.76.572l-.62 1.66c-.87-.339-1.59-.509-2.16-.509-1.68 0-2.52 1.116-2.52 3.349 0 1.09.2 1.91.62 2.46.42.546 1.04.818 1.85.818.92 0 1.79-.228 2.61-.685v1.801c-.37.217-.77.372-1.19.466-.42.094-.92.14-1.52.14ZM1112.12 80h-2.47l-5.29-6.513V80h-2.1V67.15h2.1v6.223l5.2-6.223h2.31l-5.19 6.206 5.44 6.644Zm10.11-4.878c0 1.588-.41 2.827-1.22 3.718-.82.89-1.95 1.336-3.4 1.336-.91 0-1.72-.205-2.41-.615-.7-.41-1.24-1-1.61-1.767-.38-.768-.56-1.658-.56-2.672 0-1.576.4-2.807 1.21-3.691.81-.885 1.95-1.328 3.42-1.328 1.4 0 2.52.455 3.34 1.363.82.902 1.23 2.12 1.23 3.656Zm-7.08 0c0 2.244.83 3.366 2.49 3.366 1.64 0 2.46-1.122 2.46-3.366 0-2.22-.82-3.331-2.48-3.331-.86 0-1.49.287-1.89.861-.38.575-.58 1.398-.58 2.47Zm11.53-4.843v3.903h4.57v-3.903h2.07V80h-2.07v-4.192h-4.57V80h-2.07v-9.72h2.07Zm16.91 0v1.618h-3.17V80h-2.07v-8.103h-3.17v-1.618h8.41Zm7.95 9.721-.41-1.353h-.07c-.47.591-.94.996-1.42 1.212-.47.211-1.08.317-1.83.317-.95 0-1.7-.258-2.24-.774-.53-.515-.8-1.245-.8-2.188 0-1.002.37-1.758 1.12-2.268.74-.51 1.88-.788 3.4-.835l1.68-.052v-.519c0-.621-.15-1.084-.44-1.389-.29-.31-.74-.465-1.35-.465a4.7 4.7 0 0 0-1.43.22c-.46.146-.89.319-1.32.518l-.66-1.477a6.9 6.9 0 0 1 1.73-.624c.62-.146 1.22-.22 1.77-.22 1.24 0 2.17.27 2.8.81.63.538.95 1.385.95 2.54V80h-1.48Zm-3.08-1.406c.75 0 1.35-.208 1.81-.624.45-.422.68-1.011.68-1.767v-.844l-1.25.053c-.97.035-1.68.2-2.12.492-.44.287-.66.73-.66 1.327 0 .434.13.771.38 1.011.26.235.65.352 1.16.352Zm13.47-8.315h2.27l-4.02 4.685 4.36 5.036h-2.37l-4.21-4.93V80h-2.06v-9.72h2.06v4.719l3.97-4.72Zm11.52 0v1.618h-3.16V80h-2.08v-8.103h-3.16v-1.618h8.4Zm3.94 3.885h1.97c1.36 0 2.36.234 3.01.703.65.469.98 1.172.98 2.11 0 1.001-.34 1.757-1.02 2.267-.68.504-1.67.756-2.97.756h-4.04v-9.72h2.07v3.884Zm3.91 2.865c0-.486-.18-.826-.55-1.02-.35-.193-.87-.29-1.54-.29h-1.82v2.752h1.55c.84 0 1.44-.118 1.81-.352.37-.234.55-.597.55-1.09Zm5.65 2.971h-2.07v-9.72h2.07V80ZM293 0h147v147H293z" fill="#1F1E1E"/>
    <path d="M332.965 72.439h-13.332V50.032h-.033v-.033h-4.686V73h18.051v-.561Zm3.967.561h18.117v-.561h-13.431V61.285h10.494v-.594h-10.494V50.56h13.431v-.561h-18.117V73Zm26.767 0V50.56c2.871 0 11.715 1.089 12.375 13.893V73h4.686V49.999h-4.686v10.329c-1.419-6.138-5.907-10.329-12.375-10.329h-4.686V73h4.686Zm26.69 0V50.56c2.871 0 11.715 1.089 12.375 13.893V73h4.686V49.999h-4.686v10.329c-1.419-6.138-5.907-10.329-12.375-10.329h-4.686V73h4.686Zm22.004 0h4.686V49.999h-4.686V73Z" fill="#fff"/>
    <path fill="#BC3324" d="M374 92h121v42H374z"/>
    <path d="M401.922 124h.54l2.94-8.55h8.55l3.33 8.55h4.47l-8.1-20.91h-4.53l-7.2 20.91Zm7.5-20.25 4.35 11.19h-8.19l3.84-11.19Zm16.222-.66V124h4.26v-7.23h5.07l4.89 7.2h4.86l-5.16-7.65c3-.78 5.28-2.64 5.28-6.81 0-5.22-3.81-6.87-8.25-6.87-4.68 0-6.03 3.51-6.69 7.41v-6.96h-4.26Zm5.43 4.38c.81-2.94 2.91-4.14 4.77-4.29 4.47-.42 4.65 2.43 4.65 6.33 0 6.33-3.36 6.75-6.24 6.75h-4.35s-.12-4.14 1.17-8.79Zm24.01-3.87.03 20.4h4.26v-20.4h8.61v-.51h-21.51v.51h8.61Z" fill="#fff"/>
    <path d="m1485.75 80-1.42-3.633h-4.58L1478.34 80H1477l4.52-11.469h1.11L1487.12 80h-1.37Zm-1.84-4.828-1.32-3.54c-.18-.447-.35-.997-.54-1.648-.11.5-.27 1.05-.49 1.649l-1.34 3.539h3.69ZM1494.88 80h-1.31v-7.453H1491c-.14 1.854-.34 3.325-.59 4.414-.25 1.088-.57 1.885-.97 2.39-.4.506-.9.758-1.52.758-.28 0-.5-.03-.67-.093v-.961c.11.03.24.047.39.047.6 0 1.08-.633 1.43-1.899.35-1.266.62-3.187.81-5.766h5V80Zm6.38.156c-1.27 0-2.27-.385-3-1.156-.73-.77-1.1-1.841-1.1-3.21 0-1.381.34-2.478 1.02-3.29.68-.813 1.6-1.219 2.74-1.219 1.07 0 1.92.354 2.55 1.063.62.703.94 1.633.94 2.789v.82h-5.9c.02 1.005.28 1.768.76 2.29.48.52 1.16.78 2.03.78.93 0 1.84-.192 2.74-.578v1.157c-.46.197-.89.338-1.31.421-.4.089-.89.133-1.47.133Zm-.35-7.789c-.69 0-1.24.224-1.65.672-.41.448-.65 1.068-.72 1.86h4.48c0-.818-.19-1.443-.55-1.876-.37-.437-.89-.656-1.56-.656Zm10.71-.93h1.42l-3.7 4.133 4 4.43h-1.51l-3.91-4.336V80h-1.3v-8.563h1.3v4.165l3.7-4.165Zm6.74 8.72c-1.24 0-2.2-.381-2.88-1.141-.68-.766-1.02-1.847-1.02-3.243 0-1.432.34-2.539 1.03-3.32.69-.781 1.68-1.172 2.96-1.172.41 0 .82.044 1.23.133.41.089.73.193.97.313l-.4 1.101c-.29-.115-.6-.208-.94-.281a4.082 4.082 0 0 0-.9-.117c-1.74 0-2.61 1.11-2.61 3.328 0 1.052.22 1.86.64 2.422.42.562 1.05.843 1.89.843.71 0 1.44-.153 2.19-.46v1.148c-.57.297-1.29.445-2.16.445Zm9.47-.157-.26-1.219h-.06c-.43.537-.86.901-1.28 1.094-.43.188-.95.281-1.59.281-.85 0-1.52-.219-2-.656-.48-.438-.72-1.06-.72-1.867 0-1.73 1.38-2.636 4.15-2.719l1.45-.047v-.531c0-.672-.14-1.167-.43-1.484-.29-.323-.75-.485-1.39-.485-.71 0-1.52.219-2.42.656l-.4-.992c.42-.229.89-.409 1.39-.539.5-.13 1.01-.195 1.51-.195 1.02 0 1.78.226 2.27.68.49.453.74 1.18.74 2.18V80h-.96Zm-2.93-.914c.81 0 1.44-.221 1.9-.664.46-.443.69-1.063.69-1.86v-.773l-1.29.055c-1.04.036-1.78.198-2.24.484-.45.281-.68.721-.68 1.32 0 .47.14.826.42 1.07.29.245.69.368 1.2.368Zm7.87-7.648v3.585h4.79v-3.585h1.3V80h-1.3v-3.86h-4.79V80h-1.3v-8.563h1.3Zm16.28 11.523h-1.26V80h-5.99v2.96h-1.25v-4.077h.68c.69-.948 1.24-2.06 1.64-3.336.39-1.276.6-2.646.61-4.11h4.34v7.446h1.23v4.078Zm-2.48-4.078V72.46h-1.92a14.346 14.346 0 0 1-.67 3.516c-.38 1.182-.85 2.15-1.41 2.906h4Zm8.18 1.273c-.56 0-1.07-.101-1.53-.304a2.962 2.962 0 0 1-1.16-.954h-.09c.06.5.09.974.09 1.422v3.524h-1.29V71.438h1.05l.18 1.171h.06c.34-.468.72-.807 1.17-1.015.44-.209.95-.313 1.52-.313 1.14 0 2.01.388 2.63 1.164.61.776.92 1.865.92 3.266 0 1.406-.31 2.5-.94 3.281-.63.776-1.5 1.164-2.61 1.164Zm-.19-7.773c-.87 0-1.51.242-1.9.726-.39.485-.59 1.256-.6 2.313v.289c0 1.203.2 2.065.6 2.586.41.516 1.05.773 1.93.773.74 0 1.32-.3 1.74-.898.42-.6.63-1.425.63-2.477 0-1.067-.21-1.885-.63-2.453-.42-.573-1.01-.86-1.77-.86Zm15.26-2.781c-1.25 0-2.25.419-2.98 1.257-.72.834-1.08 1.977-1.08 3.43 0 1.495.35 2.651 1.04 3.469.71.812 1.71 1.219 3 1.219.8 0 1.71-.144 2.73-.43v1.164c-.79.297-1.77.445-2.93.445-1.68 0-2.98-.51-3.9-1.531-.91-1.02-1.36-2.471-1.36-4.352 0-1.177.21-2.208.65-3.093a4.752 4.752 0 0 1 1.91-2.047c.83-.48 1.81-.719 2.94-.719 1.19 0 2.24.219 3.14.656l-.57 1.14c-.86-.405-1.73-.608-2.59-.608Zm4.82 9.57c0-.35.08-.612.24-.79.16-.181.39-.273.68-.273.3 0 .54.092.71.274.17.177.25.44.25.789 0 .338-.08.599-.25.781-.18.182-.41.274-.71.274-.26 0-.48-.081-.66-.243-.17-.166-.26-.437-.26-.812Z" fill="#1F1E1E"/>
    <path d="m1613 79 5-5-5-5M1618 74h-12M1618 65h4c.53 0 1.04.21 1.41.586.38.375.59.884.59 1.414v14c0 .53-.21 1.04-.59 1.414-.37.375-.88.586-1.41.586h-4" stroke="#1F1E1E" stroke-width="2" stroke-linecap="round" stroke-linejoin="round"/>
    
</g></symbol><symbol id="logo"><g fill="none">
    <path fill="#1F1E1E" d="M0 0h147v147H0z"/>
    <g fill="#fff">
        <path d="M39.965 72.439H26.633V50.032h-.032v-.033h-4.686V73h18.05v-.561ZM43.932 73h18.117v-.561H48.618V61.285h10.494v-.594H48.618V50.56h13.43v-.561H43.933V73ZM70.7 73V50.56c2.87 0 11.714 1.089 12.374 13.893V73h4.686V49.999h-4.686v10.329C81.655 54.19 77.167 49.999 70.7 49.999h-4.686V73H70.7ZM97.39 73V50.56c2.87 0 11.714 1.089 12.374 13.893V73h4.686V49.999h-4.686v10.329c-1.419-6.138-5.907-10.329-12.375-10.329h-4.686V73h4.686ZM119.393 73h4.686V49.999h-4.686V73Z"/>
    </g>
    <path fill="#BC3324" d="M81 92h121v42H81z"/>
    <g fill="#fff">
        <path d="M108.922 124h.54l2.94-8.55h8.55l3.33 8.55h4.47l-8.1-20.91h-4.53l-7.2 20.91Zm7.5-20.25 4.35 11.19h-8.19l3.84-11.19ZM132.644 103.09V124h4.26v-7.23h5.07l4.89 7.2h4.86l-5.16-7.65c3-.78 5.28-2.64 5.28-6.81 0-5.22-3.81-6.87-8.25-6.87-4.68 0-6.03 3.51-6.69 7.41v-6.96h-4.26Zm5.43 4.38c.81-2.94 2.91-4.14 4.77-4.29 4.47-.42 4.65 2.43 4.65 6.33 0 6.33-3.36 6.75-6.24 6.75h-4.35s-.12-4.14 1.17-8.79ZM162.084 103.6l.03 20.4h4.26v-20.4h8.61v-.51h-21.51v.51h8.61Z"/>
    </g>
</g></symbol><symbol id="next-arrow"><g fill="none">
    <path d="M40 52.213a29.836 29.836 0 0 0 15.297 8.21 29.76 29.76 0 0 0 17.26-1.707 29.902 29.902 0 0 0 13.408-11.049A30.089 30.089 0 0 0 91 31a30.089 30.089 0 0 0-5.035-16.667 29.902 29.902 0 0 0-13.407-11.05 29.76 29.76 0 0 0-17.262-1.707A29.837 29.837 0 0 0 40 9.786" stroke="" stroke-width="2" stroke-linecap="round"/>
    <path d="M5 31h60M58 24l7 7-7 7" stroke="" stroke-width="2" stroke-linecap="round" stroke-linejoin="round"/>
</g></symbol><symbol id="prev-arrow"><g fill="none">
    <path d="M52 9.787a29.836 29.836 0 0 0-15.297-8.21 29.76 29.76 0 0 0-17.26 1.707A29.902 29.902 0 0 0 6.034 14.333 30.09 30.09 0 0 0 1 31a30.09 30.09 0 0 0 5.035 16.667 29.903 29.903 0 0 0 13.407 11.05 29.76 29.76 0 0 0 17.261 1.706A29.836 29.836 0 0 0 52 52.213" stroke="" stroke-width="2" stroke-linecap="round"/>
    <path d="M87 31H27M34 38l-7-7 7-7" stroke="" stroke-width="2" stroke-linecap="round" stroke-linejoin="round"/>
</g></symbol><symbol id="table-mark"><g fill="none">
    <circle cx="13" cy="13" r="13" fill="#1F1E1E"/>
    <path d="M19.71 8.21a1 1 0 0 0-1.42 0l-7.45 7.46-3.13-3.14A1.02 1.02 0 1 0 6.29 14l3.84 3.84a1.002 1.002 0 0 0 1.42 0l8.16-8.16a1 1 0 0 0 0-1.47Z" fill="#fff"/>
</g></symbol><symbol id="u_check"><g fill="none">
    <path fill="#1F1E1E" d="M.5.5h23v23H.5z"/>
    <path stroke="#1F1E1E" d="M.5.5h23v23H.5z"/>
    <path d="M18.71 7.21a1 1 0 0 0-1.42 0l-7.45 7.46-3.13-3.14A1.02 1.02 0 1 0 5.29 13l3.84 3.84a1.001 1.001 0 0 0 1.42 0l8.16-8.16a1 1 0 0 0 0-1.47Z" fill="#fff"/>
</g></symbol></svg>